<mxfile host="app.diagrams.net" modified="2024-03-04T00:21:50.818Z" agent="Mozilla/5.0 (Macintosh; Intel Mac OS X 10_15_7) AppleWebKit/537.36 (KHTML, like Gecko) Chrome/122.0.0.0 Safari/537.36" version="21.6.6" etag="pORgIXmLNPXO0RPkHF14" type="github">
  <diagram name="Page-1" id="IpIZHipiZmfi_9Dl7z55">
    <mxGraphModel>
      <root>
        <mxCell id="0" />
        <mxCell id="1" parent="0" />
      </root>
    </mxGraphModel>
  </diagram>
</mxfile>
